<?xml version="1.0" standalone="no"?>
<!DOCTYPE svg PUBLIC "-//W3C//DTD SVG 20010904//EN"
 "http://www.w3.org/TR/2001/REC-SVG-20010904/DTD/svg10.dtd">
<svg version="1.0" xmlns="http://www.w3.org/2000/svg"
 width="881.000000pt" height="881.000000pt" viewBox="0 0 881.000000 881.000000"
 preserveAspectRatio="xMidYMid meet">
<metadata>
Created by potrace 1.11, written by Peter Selinger 2001-2013
</metadata>
<g transform="translate(0.000000,881.000000) scale(0.100000,-0.100000)"
fill="#000000" stroke="none">
<path d="M3538 8055 c-2 -2 -41 -6 -88 -9 -47 -4 -101 -8 -120 -11 -45 -6
-119 -16 -145 -20 -11 -2 -38 -6 -60 -9 -68 -10 -120 -21 -260 -55 -191 -46
-534 -163 -595 -202 -8 -5 -22 -12 -30 -15 -135 -51 -600 -318 -600 -345 0 -5
-3 -8 -7 -7 -7 2 -159 -105 -173 -121 -3 -3 -30 -26 -60 -51 -30 -24 -73 -61
-95 -81 -22 -21 -50 -46 -62 -57 -13 -10 -19 -23 -15 -27 4 -5 2 -5 -4 -2 -15
9 -188 -172 -339 -354 -11 -13 -53 -69 -93 -124 -39 -55 -77 -105 -82 -112 -6
-7 -15 -24 -22 -38 -6 -14 -14 -25 -18 -25 -4 0 -13 -13 -20 -30 -7 -16 -16
-30 -21 -30 -5 0 -9 -4 -9 -9 0 -11 -82 -154 -93 -162 -4 -3 -9 -16 -10 -27
-1 -12 -4 -22 -8 -22 -8 0 -69 -121 -69 -136 0 -7 -6 -17 -13 -23 -8 -6 -20
-30 -27 -53 -8 -24 -17 -45 -20 -48 -12 -9 -118 -302 -149 -410 -35 -123 -88
-343 -96 -402 -2 -12 -8 -54 -13 -93 -6 -38 -14 -101 -17 -140 -4 -38 -10 -99
-14 -135 -9 -69 -6 -521 2 -580 3 -19 8 -62 12 -94 7 -73 12 -107 32 -221 8
-49 17 -99 18 -110 2 -11 13 -58 25 -105 12 -47 23 -89 24 -95 14 -59 98 -324
116 -360 11 -24 43 -98 45 -105 9 -33 27 -74 80 -180 35 -69 71 -141 80 -160
10 -19 33 -58 51 -87 19 -28 34 -54 34 -57 0 -13 73 -116 82 -116 5 0 7 -4 4
-8 -5 -9 51 -94 66 -100 5 -2 8 -8 8 -13 0 -5 32 -50 71 -100 68 -87 84 -107
141 -173 15 -17 28 -35 28 -39 0 -5 4 -5 10 -2 6 3 10 1 10 -4 0 -17 33 -50
43 -44 6 3 7 2 4 -4 -10 -15 324 -332 345 -326 4 2 8 -1 8 -6 0 -6 55 -51 123
-101 67 -50 127 -94 132 -98 52 -40 280 -172 400 -232 150 -75 177 -88 297
-137 71 -29 308 -110 341 -117 12 -3 49 -12 82 -21 116 -32 130 -35 155 -39
14 -2 59 -11 100 -20 41 -9 95 -18 120 -21 25 -3 56 -7 70 -10 196 -35 629
-40 902 -11 121 14 171 21 300 47 101 19 252 55 278 66 8 3 20 7 25 7 61 9
353 116 515 189 162 74 468 245 535 300 6 4 46 33 90 65 44 31 85 61 91 67 6
5 26 21 44 35 19 14 44 34 56 45 12 11 42 36 66 55 84 68 335 327 435 451 97
121 241 324 297 421 l27 46 -241 0 c-195 1 -240 -2 -240 -13 0 -7 -4 -15 -9
-17 -9 -3 -113 -138 -106 -138 2 0 -9 -12 -23 -28 -15 -15 -43 -47 -62 -72
-89 -112 -401 -407 -520 -490 -19 -13 -37 -27 -40 -30 -3 -3 -41 -30 -85 -59
-44 -29 -83 -58 -87 -65 -4 -6 -8 -7 -8 -3 0 5 -12 0 -27 -11 -61 -43 -433
-237 -433 -226 0 3 -17 -4 -37 -15 -87 -44 -447 -154 -573 -176 -19 -3 -51
-10 -70 -15 -19 -5 -62 -11 -95 -15 -33 -3 -69 -8 -80 -11 -135 -29 -634 -36
-785 -10 -14 2 -50 7 -80 10 -48 6 -89 12 -190 30 -68 12 -286 68 -374 96
-248 80 -530 211 -736 343 -58 37 -114 73 -125 80 -11 7 -22 14 -25 17 -3 3
-34 27 -70 54 -71 53 -142 111 -206 168 -22 21 -44 34 -48 30 -4 -4 -6 -2 -5
3 1 6 -49 62 -112 126 -167 169 -256 278 -399 487 -27 41 -50 76 -50 78 0 2
-12 23 -27 47 -78 123 -237 454 -258 540 -4 15 -11 27 -17 27 -5 0 -7 4 -4 9
3 5 0 24 -8 43 -17 39 -96 321 -101 360 -2 15 -8 53 -14 85 -6 32 -13 72 -16
88 -2 17 -7 50 -10 75 -3 25 -8 54 -10 65 -17 83 -24 496 -10 628 3 34 8 82
11 107 5 57 13 118 19 150 3 14 7 40 10 58 4 27 26 129 40 192 26 118 98 338
152 470 42 102 149 319 186 377 15 24 27 45 27 48 0 4 18 33 40 65 22 32 40
63 40 69 0 5 4 11 8 13 4 2 28 32 52 67 48 69 48 68 137 176 31 39 62 76 68
83 19 25 260 267 300 302 103 90 159 134 280 220 72 50 146 101 165 111 19 11
53 31 75 44 58 36 259 138 335 170 36 15 74 31 85 36 78 35 354 123 453 144
172 37 229 48 327 60 28 4 61 8 75 10 112 18 437 24 600 11 58 -5 119 -9 135
-11 17 -1 48 -5 70 -9 22 -4 54 -9 70 -11 17 -2 39 -6 50 -8 18 -4 61 -12 125
-24 69 -12 310 -77 345 -93 11 -5 49 -19 85 -31 127 -43 472 -201 500 -229 3
-3 25 -16 50 -29 25 -14 47 -28 50 -31 3 -4 19 -14 35 -23 17 -8 65 -40 107
-70 42 -30 79 -53 82 -49 3 3 6 1 6 -5 0 -12 162 -139 173 -135 4 1 6 -1 5 -5
-4 -11 87 -94 95 -88 4 3 6 3 4 0 -2 -3 46 -56 107 -118 122 -125 117 -119
234 -264 45 -56 82 -107 82 -112 0 -6 4 -11 8 -11 4 0 16 -15 27 -32 10 -18
21 -35 25 -38 3 -3 27 -39 53 -80 25 -41 50 -80 54 -85 4 -6 28 -49 52 -95 24
-47 49 -88 55 -92 6 -4 8 -8 3 -8 -4 0 4 -21 17 -47 35 -68 73 -156 107 -245
l28 -78 -22 0 c-31 -1 -1458 -1 -1532 0 l-60 0 -47 58 c-78 96 -280 292 -301
292 -4 0 -18 10 -32 23 -48 41 -207 137 -219 130 -6 -3 -8 -2 -3 2 22 24 -343
161 -503 189 -19 3 -44 8 -55 10 -105 21 -371 28 -505 13 -137 -14 -331 -62
-449 -111 -36 -14 -70 -26 -78 -26 -7 0 -13 -4 -13 -10 0 -5 -7 -10 -15 -10
-30 0 -315 -168 -323 -191 -2 -5 -10 -9 -17 -9 -7 0 -15 -3 -17 -7 -1 -5 -28
-29 -58 -54 -97 -82 -250 -240 -250 -259 0 -6 -3 -10 -7 -10 -5 0 -24 -24 -43
-53 -19 -28 -38 -54 -41 -57 -11 -10 -105 -175 -133 -235 -57 -122 -98 -237
-126 -358 -17 -76 -24 -110 -36 -192 -9 -58 -11 -366 -3 -418 5 -29 11 -68 13
-87 6 -52 37 -193 44 -205 4 -5 7 -14 7 -20 0 -14 37 -128 45 -140 4 -5 15
-32 25 -60 20 -54 103 -217 115 -225 4 -3 10 -15 14 -27 4 -13 12 -23 17 -23
5 0 9 -4 9 -10 0 -14 92 -140 102 -140 4 0 8 -5 8 -11 0 -15 115 -138 203
-216 77 -69 101 -87 207 -157 99 -66 239 -143 268 -148 9 -2 19 -6 22 -9 20
-24 291 -103 427 -125 21 -3 49 -8 63 -11 48 -8 367 -10 416 -3 27 4 69 11 94
14 25 4 63 11 85 17 22 5 53 12 69 14 46 7 184 54 281 95 124 53 145 64 145
73 0 4 6 7 13 7 7 0 36 16 66 35 29 19 55 35 57 35 7 0 165 118 194 146 70 65
169 165 197 200 17 21 39 49 50 62 l18 23 1055 0 c580 0 1184 -1 1342 -1 l286
0 25 -42 c41 -69 78 -109 141 -150 288 -186 663 -3 692 339 9 95 -24 218 -76
288 -62 84 -172 157 -274 184 -36 9 -161 8 -196 -2 -8 -3 -30 -8 -47 -12 -18
-4 -33 -11 -33 -16 0 -5 -7 -9 -16 -9 -41 0 -161 -115 -200 -192 -15 -29 -31
-48 -42 -49 -127 -3 -4892 -3 -4892 1 0 3 -14 21 -32 40 -46 51 -133 188 -166
261 -33 73 -68 184 -77 247 l-7 42 1919 0 1918 0 18 -45 c10 -24 45 -71 76
-104 175 -183 466 -184 639 -3 46 48 86 107 91 134 1 4 9 25 18 45 19 46 25
163 12 224 -35 158 -155 288 -313 339 -82 27 -218 19 -293 -15 -17 -8 -34 -15
-38 -15 -3 0 -32 -20 -64 -44 -60 -46 -96 -88 -125 -143 l-17 -33 -1920 0
c-1824 0 -1920 1 -1915 18 2 9 7 33 11 52 27 146 123 330 242 468 l28 33 2330
0 c1282 0 2389 -1 2462 -1 128 0 132 -1 139 -22 9 -31 58 -94 108 -142 41 -39
166 -104 202 -106 10 0 50 -2 88 -4 70 -3 145 12 204 42 17 9 32 20 32 25 0 4
4 6 8 3 14 -8 110 82 138 130 115 197 87 418 -73 572 -30 28 -61 52 -69 52 -8
0 -14 4 -14 8 0 5 -30 19 -67 33 -133 47 -304 25 -408 -54 -57 -43 -114 -106
-137 -152 -11 -22 -22 -42 -24 -44 -4 -4 -645 -4 -648 1 -2 2 -20 53 -41 113
-73 213 -182 447 -297 641 -35 58 -72 121 -82 139 -11 19 -24 31 -30 28 -6 -3
-8 -3 -4 2 7 7 -86 150 -119 183 -7 7 -13 17 -13 20 0 4 -10 18 -23 32 -12 14
-42 50 -67 80 -73 90 -109 128 -230 250 -143 144 -234 224 -375 329 -60 46
-117 89 -126 96 -9 7 -20 14 -25 16 -5 2 -48 30 -96 62 -48 31 -90 57 -92 57
-2 0 -33 18 -68 39 -55 33 -319 165 -383 191 -11 4 -48 20 -83 34 -35 14 -68
24 -73 20 -5 -3 -9 -1 -9 4 0 8 -141 57 -254 89 -120 33 -156 43 -178 47 -12
2 -34 7 -48 10 -14 4 -36 8 -50 10 -14 2 -36 6 -50 9 -63 14 -139 27 -185 32
-27 3 -63 8 -80 10 -79 13 -616 30 -627 20z m4897 -2465 c59 -27 115 -82 146
-142 28 -55 32 -208 6 -234 -4 -4 -7 -16 -7 -26 0 -10 -4 -18 -10 -18 -5 0
-10 -5 -10 -12 0 -19 -76 -84 -127 -109 -69 -34 -179 -33 -248 0 -63 31 -114
82 -145 146 -33 66 -34 178 -4 245 23 49 73 107 116 135 76 48 198 55 283 15z
m-1374 -917 c179 -80 231 -304 106 -467 -20 -27 -37 -46 -37 -43 0 4 -16 -4
-35 -17 -19 -13 -58 -29 -86 -36 -136 -33 -278 36 -340 165 -31 66 -33 178 -2
245 36 80 125 156 196 167 17 3 34 7 37 10 11 11 119 -5 161 -24z m1345 -904
c16 -7 32 -12 36 -11 16 3 112 -103 131 -146 25 -56 29 -179 7 -227 -8 -16
-14 -34 -14 -40 -1 -16 -124 -130 -141 -130 -5 -1 -30 -7 -55 -14 -94 -28
-206 6 -287 85 -26 26 -47 48 -45 48 2 1 -5 19 -14 41 -17 39 -27 170 -15 190
3 6 6 12 6 15 5 31 95 169 95 146 0 -4 14 3 32 15 63 46 189 59 264 28z"/>
</g>
</svg>
